<?xml version="1.0" encoding="UTF-8" standalone="no"?>
<!DOCTYPE svg PUBLIC "-//W3C//DTD SVG 1.1//EN"
 "http://www.w3.org/Graphics/SVG/1.1/DTD/svg11.dtd">
<!-- Generated by graphviz version 2.49.1 (20210923.0004)
 -->
<!-- Title: gopark Pages: 1 -->
<svg width="625pt" height="277pt"
 viewBox="0.00 0.00 625.02 277.00" xmlns="http://www.w3.org/2000/svg" xmlns:xlink="http://www.w3.org/1999/xlink">
<g id="graph0" class="graph" transform="scale(1 1) rotate(0) translate(4 273)">
<title>gopark</title>
<polygon fill="white" stroke="transparent" points="-4,4 -4,-273 621.02,-273 621.02,4 -4,4"/>
<!-- checkgpstatus -->
<g id="node1" class="node">
<title>checkgpstatus</title>
<ellipse fill="none" stroke="black" cx="130.64" cy="-178" rx="130.78" ry="18"/>
<text text-anchor="middle" x="130.64" y="-174.3" font-family="Times,serif" font-size="14.00">check current G status is running</text>
</g>
<!-- throw -->
<g id="node3" class="node">
<title>throw</title>
<ellipse fill="none" stroke="red" cx="108.64" cy="-91" rx="81.49" ry="18"/>
<text text-anchor="middle" x="108.64" y="-87.3" font-family="Times,serif" font-size="14.00">gopark:bad g status</text>
</g>
<!-- checkgpstatus&#45;&gt;throw -->
<g id="edge2" class="edge">
<title>checkgpstatus&#45;&gt;throw</title>
<path fill="none" stroke="black" d="M126.19,-159.8C123.17,-148.16 119.13,-132.55 115.69,-119.24"/>
<polygon fill="black" stroke="black" points="118.98,-117.98 113.08,-109.18 112.2,-119.73 118.98,-117.98"/>
<text text-anchor="middle" x="132.64" y="-130.8" font-family="Times,serif" font-size="14.00">true</text>
</g>
<!-- saveTheInfoToCurM -->
<g id="node4" class="node">
<title>saveTheInfoToCurM</title>
<ellipse fill="none" stroke="black" cx="385.64" cy="-91" rx="178.17" ry="18"/>
<text text-anchor="middle" x="385.64" y="-87.3" font-family="Times,serif" font-size="14.00">save some info about this parking(waitting) G</text>
</g>
<!-- checkgpstatus&#45;&gt;saveTheInfoToCurM -->
<g id="edge3" class="edge">
<title>checkgpstatus&#45;&gt;saveTheInfoToCurM</title>
<path fill="none" stroke="black" d="M178,-161.21C220,-147.21 281.51,-126.71 326.69,-111.65"/>
<polygon fill="black" stroke="black" points="327.97,-114.91 336.35,-108.43 325.76,-108.27 327.97,-114.91"/>
<text text-anchor="middle" x="287.14" y="-130.8" font-family="Times,serif" font-size="14.00">false</text>
</g>
<!-- acquirem -->
<g id="node2" class="node">
<title>acquirem</title>
<ellipse fill="none" stroke="black" cx="130.64" cy="-251" rx="44.69" ry="18"/>
<text text-anchor="middle" x="130.64" y="-247.3" font-family="Times,serif" font-size="14.00">acquirem</text>
</g>
<!-- acquirem&#45;&gt;checkgpstatus -->
<g id="edge1" class="edge">
<title>acquirem&#45;&gt;checkgpstatus</title>
<path fill="none" stroke="black" d="M130.64,-232.81C130.64,-224.79 130.64,-215.05 130.64,-206.07"/>
<polygon fill="black" stroke="black" points="134.14,-206.03 130.64,-196.03 127.14,-206.03 134.14,-206.03"/>
</g>
<!-- mcall -->
<g id="node5" class="node">
<title>mcall</title>
<ellipse fill="none" stroke="black" cx="385.64" cy="-18" rx="231.26" ry="18"/>
<text text-anchor="middle" x="385.64" y="-14.3" font-family="Times,serif" font-size="14.00"> switches from the g to the g0 stack and invokes fn(park_m),</text>
</g>
<!-- saveTheInfoToCurM&#45;&gt;mcall -->
<g id="edge4" class="edge">
<title>saveTheInfoToCurM&#45;&gt;mcall</title>
<path fill="none" stroke="black" d="M385.64,-72.81C385.64,-64.79 385.64,-55.05 385.64,-46.07"/>
<polygon fill="black" stroke="black" points="389.14,-46.03 385.64,-36.03 382.14,-46.03 389.14,-46.03"/>
</g>
<!-- park_m -->
<g id="node6" class="node">
<title>park_m</title>
<ellipse fill="none" stroke="yellow" cx="290.64" cy="-251" rx="97.48" ry="18"/>
<text text-anchor="middle" x="290.64" y="-247.3" font-family="Times,serif" font-size="14.00">park continuation on g0</text>
</g>
</g>
</svg>
