<?xml version="1.0" encoding="UTF-8" standalone="no"?>
<!DOCTYPE svg PUBLIC "-//W3C//DTD SVG 1.1//EN"
 "http://www.w3.org/Graphics/SVG/1.1/DTD/svg11.dtd">
<!-- Generated by graphviz version 2.49.1 (20210923.0004)
 -->
<!-- Title: chansend1 Pages: 1 -->
<svg width="1540pt" height="1166pt"
 viewBox="0.00 0.00 1539.64 1165.74" xmlns="http://www.w3.org/2000/svg" xmlns:xlink="http://www.w3.org/1999/xlink">
<g id="graph0" class="graph" transform="scale(1 1) rotate(0) translate(4 1161.74)">
<title>chansend1</title>
<polygon fill="white" stroke="transparent" points="-4,4 -4,-1161.74 1535.64,-1161.74 1535.64,4 -4,4"/>
<!-- chansend1 -->
<g id="node1" class="node">
<title>chansend1</title>
<polygon fill="none" stroke="black" points="1222.64,-1157.74 1146.64,-1157.74 1146.64,-1121.74 1222.64,-1121.74 1222.64,-1157.74"/>
<text text-anchor="middle" x="1184.64" y="-1136.04" font-family="Times,serif" font-size="14.00">chansend1</text>
</g>
<!-- chansend -->
<g id="node2" class="node">
<title>chansend</title>
<polygon fill="none" stroke="black" points="1379.64,-1084.74 989.64,-1084.74 989.64,-1048.74 1379.64,-1048.74 1379.64,-1084.74"/>
<text text-anchor="middle" x="1184.64" y="-1063.04" font-family="Times,serif" font-size="14.00">chansend(c *hchan, ep unsafe.Pointer, block bool, callerpc uintptr)</text>
</g>
<!-- chansend1&#45;&gt;chansend -->
<g id="edge1" class="edge">
<title>chansend1&#45;&gt;chansend</title>
<path fill="none" stroke="black" d="M1184.64,-1121.55C1184.64,-1113.53 1184.64,-1103.79 1184.64,-1094.81"/>
<polygon fill="black" stroke="black" points="1188.14,-1094.77 1184.64,-1084.77 1181.14,-1094.77 1188.14,-1094.77"/>
</g>
<!-- cIsNil -->
<g id="node3" class="node">
<title>cIsNil</title>
<polygon fill="none" stroke="black" points="1184.64,-1011.74 1090.96,-977.24 1278.32,-977.24 1184.64,-1011.74"/>
<text text-anchor="middle" x="1184.64" y="-985.04" font-family="Times,serif" font-size="14.00">if c == nil</text>
</g>
<!-- chansend&#45;&gt;cIsNil -->
<g id="edge2" class="edge">
<title>chansend&#45;&gt;cIsNil</title>
<path fill="none" stroke="black" d="M1184.64,-1048.49C1184.64,-1040.6 1184.64,-1030.99 1184.64,-1021.84"/>
<polygon fill="black" stroke="black" points="1188.14,-1021.83 1184.64,-1011.83 1181.14,-1021.83 1188.14,-1021.83"/>
</g>
<!-- checkNonblocking -->
<g id="node6" class="node">
<title>checkNonblocking</title>
<polygon fill="none" stroke="black" points="1010.64,-914.74 747.99,-880.24 1273.29,-880.24 1010.64,-914.74"/>
<text text-anchor="middle" x="1010.64" y="-888.04" font-family="Times,serif" font-size="14.00">!block &amp;&amp; !c.closed &amp;&amp; c.isFull</text>
</g>
<!-- cIsNil&#45;&gt;checkNonblocking -->
<g id="edge7" class="edge">
<title>cIsNil&#45;&gt;checkNonblocking</title>
<path fill="none" stroke="black" d="M1165.35,-977.21C1138.19,-962.38 1087.98,-934.97 1052.13,-915.39"/>
<polygon fill="black" stroke="black" points="1053.8,-912.32 1043.34,-910.6 1050.44,-918.46 1053.8,-912.32"/>
<text text-anchor="middle" x="1121.14" y="-936.54" font-family="Times,serif" font-size="14.00">false</text>
</g>
<!-- isBlock -->
<g id="node16" class="node">
<title>isBlock</title>
<polygon fill="none" stroke="black" points="1358.64,-914.74 1290.95,-880.24 1426.33,-880.24 1358.64,-914.74"/>
<text text-anchor="middle" x="1358.64" y="-888.04" font-family="Times,serif" font-size="14.00">!block</text>
</g>
<!-- cIsNil&#45;&gt;isBlock -->
<g id="edge3" class="edge">
<title>cIsNil&#45;&gt;isBlock</title>
<path fill="none" stroke="black" d="M1203.93,-977.21C1234.14,-960.71 1292.87,-928.65 1328.64,-909.12"/>
<polygon fill="black" stroke="black" points="1330.55,-912.07 1337.65,-904.2 1327.19,-905.92 1330.55,-912.07"/>
</g>
<!-- throw -->
<g id="node4" class="node">
<title>throw</title>
<ellipse fill="none" stroke="red" cx="1270.64" cy="-721.74" rx="89.88" ry="18"/>
<text text-anchor="middle" x="1270.64" y="-718.04" font-family="Times,serif" font-size="14.00">throw(&quot;unreachable&quot;)</text>
</g>
<!-- goparkAndNounlockFn -->
<g id="node5" class="node">
<title>goparkAndNounlockFn</title>
<ellipse fill="none" stroke="aqua" cx="1270.64" cy="-799.74" rx="210.66" ry="18"/>
<text text-anchor="middle" x="1270.64" y="-796.04" font-family="Times,serif" font-size="14.00">park current G and here is no unlock func aware this G</text>
</g>
<!-- goparkAndNounlockFn&#45;&gt;throw -->
<g id="edge6" class="edge">
<title>goparkAndNounlockFn&#45;&gt;throw</title>
<path fill="none" stroke="black" d="M1270.64,-781.49C1270.64,-772.26 1270.64,-760.67 1270.64,-750.23"/>
<polygon fill="black" stroke="black" points="1274.14,-749.92 1270.64,-739.92 1267.14,-749.92 1274.14,-749.92"/>
</g>
<!-- lock -->
<g id="node7" class="node">
<title>lock</title>
<polygon fill="none" stroke="black" points="916.14,-817.74 821.14,-817.74 821.14,-781.74 916.14,-781.74 916.14,-817.74"/>
<text text-anchor="middle" x="868.64" y="-796.04" font-family="Times,serif" font-size="14.00">lock(&amp;c.lock)</text>
</g>
<!-- checkNonblocking&#45;&gt;lock -->
<g id="edge9" class="edge">
<title>checkNonblocking&#45;&gt;lock</title>
<path fill="none" stroke="black" d="M994.07,-880.24C972.13,-866.33 932.84,-841.43 904.07,-823.19"/>
<polygon fill="black" stroke="black" points="905.82,-820.16 895.5,-817.77 902.08,-826.08 905.82,-820.16"/>
<text text-anchor="middle" x="957.14" y="-839.54" font-family="Times,serif" font-size="14.00">false</text>
</g>
<!-- return_false -->
<g id="node14" class="node">
<title>return_false</title>
<ellipse fill="none" stroke="yellow" cx="1031.64" cy="-310" rx="51.99" ry="18"/>
<text text-anchor="middle" x="1031.64" y="-306.3" font-family="Times,serif" font-size="14.00">return false</text>
</g>
<!-- checkNonblocking&#45;&gt;return_false -->
<g id="edge8" class="edge">
<title>checkNonblocking&#45;&gt;return_false</title>
<path fill="none" stroke="black" d="M1014.79,-880.12C1020.91,-863.48 1031.64,-830.1 1031.64,-800.74 1031.64,-800.74 1031.64,-800.74 1031.64,-404.87 1031.64,-382.53 1031.64,-357.19 1031.64,-338.48"/>
<polygon fill="black" stroke="black" points="1035.14,-338.3 1031.64,-328.3 1028.14,-338.3 1035.14,-338.3"/>
<text text-anchor="middle" x="1042.64" y="-621.04" font-family="Times,serif" font-size="14.00">true</text>
</g>
<!-- isChanClosed -->
<g id="node8" class="node">
<title>isChanClosed</title>
<polygon fill="none" stroke="black" points="622.64,-744.74 506.76,-710.24 738.52,-710.24 622.64,-744.74"/>
<text text-anchor="middle" x="622.64" y="-718.04" font-family="Times,serif" font-size="14.00">c.closed != 0</text>
</g>
<!-- lock&#45;&gt;isChanClosed -->
<g id="edge10" class="edge">
<title>lock&#45;&gt;isChanClosed</title>
<path fill="none" stroke="black" d="M820.92,-784C776.97,-770.42 712.2,-750.41 668.77,-736.99"/>
<polygon fill="black" stroke="black" points="669.62,-733.59 659.03,-733.98 667.55,-740.28 669.62,-733.59"/>
</g>
<!-- closedPanic -->
<g id="node9" class="node">
<title>closedPanic</title>
<ellipse fill="none" stroke="red" cx="117.64" cy="-624.74" rx="117.78" ry="18"/>
<text text-anchor="middle" x="117.64" y="-621.04" font-family="Times,serif" font-size="14.00">Panic:send on closed channel</text>
</g>
<!-- isChanClosed&#45;&gt;closedPanic -->
<g id="edge11" class="edge">
<title>isChanClosed&#45;&gt;closedPanic</title>
<path fill="none" stroke="black" d="M566.67,-710.21C477.32,-693.4 302.06,-660.43 198.91,-641.03"/>
<polygon fill="black" stroke="black" points="199.32,-637.54 188.85,-639.14 198.03,-644.42 199.32,-637.54"/>
<text text-anchor="middle" x="411.64" y="-669.54" font-family="Times,serif" font-size="14.00">true</text>
</g>
<!-- recvqDequeue -->
<g id="node10" class="node">
<title>recvqDequeue</title>
<polygon fill="none" stroke="black" points="622.64,-647.74 253.3,-613.24 991.97,-613.24 622.64,-647.74"/>
<text text-anchor="middle" x="622.64" y="-621.04" font-family="Times,serif" font-size="14.00">dequeue from recvq, have goroutine is watting?</text>
</g>
<!-- isChanClosed&#45;&gt;recvqDequeue -->
<g id="edge12" class="edge">
<title>isChanClosed&#45;&gt;recvqDequeue</title>
<path fill="none" stroke="black" d="M622.64,-710.21C622.64,-697.69 622.64,-676.21 622.64,-658.04"/>
<polygon fill="black" stroke="black" points="626.14,-657.82 622.64,-647.82 619.14,-657.82 626.14,-657.82"/>
<text text-anchor="middle" x="636.14" y="-669.54" font-family="Times,serif" font-size="14.00">false</text>
</g>
<!-- runRecvq -->
<g id="node11" class="node">
<title>runRecvq</title>
<ellipse fill="none" stroke="black" cx="409.64" cy="-468.74" rx="128.08" ry="18"/>
<text text-anchor="middle" x="409.64" y="-465.04" font-family="Times,serif" font-size="14.00">get waitting goroutine and run it</text>
</g>
<!-- recvqDequeue&#45;&gt;runRecvq -->
<g id="edge13" class="edge">
<title>recvqDequeue&#45;&gt;runRecvq</title>
<path fill="none" stroke="black" d="M563.28,-613.15C523.57,-603.24 472.72,-584.65 439.64,-550.74 425.42,-536.16 417.84,-514.25 413.86,-496.9"/>
<polygon fill="black" stroke="black" points="417.23,-495.89 411.82,-486.78 410.37,-497.28 417.23,-495.89"/>
<text text-anchor="middle" x="493.64" y="-572.54" font-family="Times,serif" font-size="14.00">true</text>
</g>
<!-- checkChanIsFull -->
<g id="node12" class="node">
<title>checkChanIsFull</title>
<polygon fill="none" stroke="black" points="622.64,-550.74 448.27,-516.24 797.01,-516.24 622.64,-550.74"/>
<text text-anchor="middle" x="622.64" y="-524.04" font-family="Times,serif" font-size="14.00">is c.count &lt; c.datasiz</text>
</g>
<!-- recvqDequeue&#45;&gt;checkChanIsFull -->
<g id="edge15" class="edge">
<title>recvqDequeue&#45;&gt;checkChanIsFull</title>
<path fill="none" stroke="black" d="M622.64,-613.21C622.64,-600.69 622.64,-579.21 622.64,-561.04"/>
<polygon fill="black" stroke="black" points="626.14,-560.82 622.64,-550.82 619.14,-560.82 626.14,-560.82"/>
<text text-anchor="middle" x="636.14" y="-572.54" font-family="Times,serif" font-size="14.00">false</text>
</g>
<!-- return -->
<g id="node15" class="node">
<title>return</title>
<ellipse fill="none" stroke="yellow" cx="475.64" cy="-310" rx="48.99" ry="18"/>
<text text-anchor="middle" x="475.64" y="-306.3" font-family="Times,serif" font-size="14.00">return true</text>
</g>
<!-- runRecvq&#45;&gt;return -->
<g id="edge14" class="edge">
<title>runRecvq&#45;&gt;return</title>
<path fill="none" stroke="black" d="M407.35,-450.65C405.61,-432.22 404.93,-402.37 414.64,-379 421.9,-361.53 435.63,-345.59 448.23,-333.53"/>
<polygon fill="black" stroke="black" points="450.84,-335.88 455.86,-326.55 446.12,-330.72 450.84,-335.88"/>
</g>
<!-- isBlockingRequir -->
<g id="node13" class="node">
<title>isBlockingRequir</title>
<polygon fill="none" stroke="black" points="854.64,-428.87 705.17,-394.37 1004.11,-394.37 854.64,-428.87"/>
<text text-anchor="middle" x="854.64" y="-402.17" font-family="Times,serif" font-size="14.00">is blocking requir</text>
</g>
<!-- checkChanIsFull&#45;&gt;isBlockingRequir -->
<g id="edge18" class="edge">
<title>checkChanIsFull&#45;&gt;isBlockingRequir</title>
<path fill="none" stroke="black" d="M643.23,-516.1C681.98,-496.08 766.33,-452.5 815.97,-426.85"/>
<polygon fill="black" stroke="black" points="817.84,-429.82 825.12,-422.12 814.63,-423.6 817.84,-429.82"/>
<text text-anchor="middle" x="779.14" y="-465.04" font-family="Times,serif" font-size="14.00">false</text>
</g>
<!-- typedmemmove -->
<g id="node17" class="node">
<title>typedmemmove</title>
<ellipse fill="none" stroke="black" cx="555.64" cy="-405.87" rx="131.54" ry="26.74"/>
<text text-anchor="middle" x="555.64" y="-409.67" font-family="Times,serif" font-size="14.00">typedmemmove </text>
<text text-anchor="middle" x="555.64" y="-394.67" font-family="Times,serif" font-size="14.00"> save this elem to Channel.buf</text>
</g>
<!-- checkChanIsFull&#45;&gt;typedmemmove -->
<g id="edge16" class="edge">
<title>checkChanIsFull&#45;&gt;typedmemmove</title>
<path fill="none" stroke="black" d="M616.69,-516.1C607.45,-499.57 589.23,-466.97 575.09,-441.68"/>
<polygon fill="black" stroke="black" points="578.03,-439.75 570.09,-432.73 571.92,-443.16 578.03,-439.75"/>
<text text-anchor="middle" x="610.64" y="-465.04" font-family="Times,serif" font-size="14.00">true</text>
</g>
<!-- isBlockingRequir&#45;&gt;return_false -->
<g id="edge19" class="edge">
<title>isBlockingRequir&#45;&gt;return_false</title>
<path fill="none" stroke="black" d="M874.6,-394.28C903.94,-378.73 959.17,-349.43 995.69,-330.07"/>
<polygon fill="black" stroke="black" points="997.35,-333.15 1004.54,-325.37 994.07,-326.97 997.35,-333.15"/>
<text text-anchor="middle" x="974.64" y="-349.8" font-family="Times,serif" font-size="14.00">true</text>
</g>
<!-- blocking -->
<g id="node18" class="node">
<title>blocking</title>
<ellipse fill="none" stroke="black" cx="854.64" cy="-310" rx="42.49" ry="18"/>
<text text-anchor="middle" x="854.64" y="-306.3" font-family="Times,serif" font-size="14.00">blocking</text>
</g>
<!-- isBlockingRequir&#45;&gt;blocking -->
<g id="edge20" class="edge">
<title>isBlockingRequir&#45;&gt;blocking</title>
<path fill="none" stroke="black" d="M854.64,-394.1C854.64,-380.59 854.64,-356.94 854.64,-338.32"/>
<polygon fill="black" stroke="black" points="858.14,-338.32 854.64,-328.32 851.14,-338.32 858.14,-338.32"/>
<text text-anchor="middle" x="868.14" y="-349.8" font-family="Times,serif" font-size="14.00">false</text>
</g>
<!-- isBlock&#45;&gt;goparkAndNounlockFn -->
<g id="edge5" class="edge">
<title>isBlock&#45;&gt;goparkAndNounlockFn</title>
<path fill="none" stroke="black" d="M1348.2,-880.06C1335.05,-866.62 1312.07,-843.11 1294.52,-825.16"/>
<polygon fill="black" stroke="black" points="1296.87,-822.56 1287.38,-817.86 1291.87,-827.46 1296.87,-822.56"/>
<text text-anchor="middle" x="1330.14" y="-839.54" font-family="Times,serif" font-size="14.00">false</text>
</g>
<!-- isBlock&#45;&gt;return_false -->
<g id="edge4" class="edge">
<title>isBlock&#45;&gt;return_false</title>
<path fill="none" stroke="black" d="M1417.02,-880.2C1459.51,-868.77 1509.64,-845.75 1509.64,-800.74 1509.64,-800.74 1509.64,-800.74 1509.64,-404.87 1509.64,-321.09 1223.31,-310.76 1093.87,-310.38"/>
<polygon fill="black" stroke="black" points="1093.71,-306.88 1083.7,-310.37 1093.7,-313.88 1093.71,-306.88"/>
<text text-anchor="middle" x="1520.64" y="-621.04" font-family="Times,serif" font-size="14.00">true</text>
</g>
<!-- typedmemmove&#45;&gt;return -->
<g id="edge17" class="edge">
<title>typedmemmove&#45;&gt;return</title>
<path fill="none" stroke="black" d="M533.78,-379.22C522.13,-365.55 507.88,-348.83 496.41,-335.37"/>
<polygon fill="black" stroke="black" points="498.82,-332.8 489.67,-327.46 493.49,-337.34 498.82,-332.8"/>
</g>
<!-- getg -->
<g id="node19" class="node">
<title>getg</title>
<ellipse fill="none" stroke="black" cx="854.64" cy="-237" rx="56.59" ry="18"/>
<text text-anchor="middle" x="854.64" y="-233.3" font-family="Times,serif" font-size="14.00">get current g</text>
</g>
<!-- blocking&#45;&gt;getg -->
<g id="edge21" class="edge">
<title>blocking&#45;&gt;getg</title>
<path fill="none" stroke="black" d="M854.64,-291.81C854.64,-283.79 854.64,-274.05 854.64,-265.07"/>
<polygon fill="black" stroke="black" points="858.14,-265.03 854.64,-255.03 851.14,-265.03 858.14,-265.03"/>
</g>
<!-- acquireSudog -->
<g id="node20" class="node">
<title>acquireSudog</title>
<ellipse fill="none" stroke="black" cx="854.64" cy="-164" rx="44.39" ry="18"/>
<text text-anchor="middle" x="854.64" y="-160.3" font-family="Times,serif" font-size="14.00">acquire g</text>
</g>
<!-- getg&#45;&gt;acquireSudog -->
<g id="edge22" class="edge">
<title>getg&#45;&gt;acquireSudog</title>
<path fill="none" stroke="black" d="M854.64,-218.81C854.64,-210.79 854.64,-201.05 854.64,-192.07"/>
<polygon fill="black" stroke="black" points="858.14,-192.03 854.64,-182.03 851.14,-192.03 858.14,-192.03"/>
</g>
<!-- saveGContextAndEnqueueToC -->
<g id="node21" class="node">
<title>saveGContextAndEnqueueToC</title>
<ellipse fill="none" stroke="black" cx="854.64" cy="-91" rx="207.16" ry="18"/>
<text text-anchor="middle" x="854.64" y="-87.3" font-family="Times,serif" font-size="14.00">save current g context and enqueue to channel&#39;s sendq</text>
</g>
<!-- acquireSudog&#45;&gt;saveGContextAndEnqueueToC -->
<g id="edge23" class="edge">
<title>acquireSudog&#45;&gt;saveGContextAndEnqueueToC</title>
<path fill="none" stroke="black" d="M854.64,-145.81C854.64,-137.79 854.64,-128.05 854.64,-119.07"/>
<polygon fill="black" stroke="black" points="858.14,-119.03 854.64,-109.03 851.14,-119.03 858.14,-119.03"/>
</g>
<!-- gopark -->
<g id="node22" class="node">
<title>gopark</title>
<ellipse fill="none" stroke="aqua" cx="854.64" cy="-18" rx="411.33" ry="18"/>
<text text-anchor="middle" x="854.64" y="-14.3" font-family="Times,serif" font-size="14.00">gopark(unlockfun:chanparkcommit, unsafe.Pointer(&amp;c.lock), waitReasonChanSend, traceEvGoBlockSend, 2)</text>
</g>
<!-- saveGContextAndEnqueueToC&#45;&gt;gopark -->
<g id="edge24" class="edge">
<title>saveGContextAndEnqueueToC&#45;&gt;gopark</title>
<path fill="none" stroke="black" d="M854.64,-72.81C854.64,-64.79 854.64,-55.05 854.64,-46.07"/>
<polygon fill="black" stroke="black" points="858.14,-46.03 854.64,-36.03 851.14,-46.03 858.14,-46.03"/>
</g>
</g>
</svg>
